<?xml version="1.0" encoding="utf-8"?>
<!-- Generator: Adobe Illustrator 21.0.0, SVG Export Plug-In . SVG Version: 6.00 Build 0)  -->
<svg version="1.1" id="Layer_1" xmlns="http://www.w3.org/2000/svg" xmlns:xlink="http://www.w3.org/1999/xlink" x="0px" y="0px"
	 viewBox="0 0 120 120" style="enable-background:new 0 0 120 120;" xml:space="preserve">
<style type="text/css">
	.st0{fill:#FFFFFF;}
</style>
<polygon class="st0" points="95,109.3 95,77.2 105.7,77.2 105.7,120 9.4,120 9.4,77.2 20,77.2 20,109.3 "/>
<path class="st0" d="M31.8,74.1l52.4,10.9l2.2-10.5L34,63.6L31.8,74.1z M38.7,49.2l48.5,22.6l4.4-9.7L43.2,39.4L38.7,49.2z
	 M52.2,25.4l41.2,34.2l6.8-8.2L59,17.2L52.2,25.4z M78.8,0l-8.6,6.4l31.9,43l8.6-6.4L78.8,0z M30.7,98.5h53.5V87.9H30.7V98.5z"/>
</svg>
